# Blender v2.92.0 OBJ File: 'untitled.blend'
# www.blender.org
mtllib regular_tetrahedron.mtl
o Cube
v -1.414214 -0.573576 -0.819152
v -0.000000 -0.584879 1.630311
v 1.414214 -0.573577 -0.819152
v -0.000000 1.732032 0.007992
v -0.000000 1.732032 0.007992
v -0.000000 -0.584879 1.630311
v 1.414214 -0.573577 -0.819152
vt 0.000000 0.000000
vt 0.000000 0.000000
vt 0.000000 0.000000
vt 0.000000 0.000000
vt 0.000000 0.000000
vt 0.000000 0.000000
vt 0.000000 0.000000
vn 0.0000 1.0000 0.0046
vn -0.0000 -0.3377 0.9413
vn -0.8165 -0.3312 -0.4729
vn 0.8165 -0.3312 -0.4729
usemtl None
s off
f 7/1/1 1/2/1 2/3/1
f 4/4/2 1/2/2 7/1/2
f 5/5/3 3/6/3 6/7/3
f 4/4/4 2/3/4 1/2/4
l 7 3
l 4 5
l 2 6
